<svg xmlns="http://www.w3.org/2000/svg" viewBox="0 0 211.35 156.26"><defs><style>.cls-1{fill:#86c71f;}</style></defs><g id="Layer_2" data-name="Layer 2"><g id="Layer_1-2" data-name="Layer 1"><path class="cls-1" d="M150.59,156.26a9.16,9.16,0,0,1-2-.23l-37.91-8.62a7.7,7.7,0,0,1-5.77-5l-8-25.46-34.06,7.74a9,9,0,0,1-4.05,0L20.8,116.06a7.71,7.71,0,0,1-5.76-5L.3,64.39a6.44,6.44,0,0,1,0-3.86L15,13.85a7.67,7.67,0,0,1,5.76-5L58.73.23a9,9,0,0,1,2-.23,9.16,9.16,0,0,1,2,.23L100.7,8.85a7.67,7.67,0,0,1,5.76,5l8.05,25.47,34.07-7.74a8.85,8.85,0,0,1,2-.23,9.22,9.22,0,0,1,2,.23l37.92,8.62a7.72,7.72,0,0,1,5.77,5L211,91.87a6.27,6.27,0,0,1,0,3.88l-3.92,12.4-20.25-7.06,2.19-6.92a1.49,1.49,0,0,0,0-.78L177.81,57.85a2.15,2.15,0,0,0-1.64-1.29l-24.88-5.65a3.25,3.25,0,0,0-.69-.08,3.19,3.19,0,0,0-.7.08L125,56.56a2.17,2.17,0,0,0-1.65,1.28l-6.11,19L99,70.4h0l-2-.58,2.22-7a1.47,1.47,0,0,0,0-.75L88,26.5a2.19,2.19,0,0,0-1.65-1.29L61.44,19.56a3.25,3.25,0,0,0-.69-.08,3.1,3.1,0,0,0-.69.08L35.19,25.21a2.15,2.15,0,0,0-1.65,1.28L22.29,62.09a1.11,1.11,0,0,0,0,.72l11.25,35.6a2.18,2.18,0,0,0,1.65,1.29l24.87,5.65a3.1,3.1,0,0,0,.69.08,3.25,3.25,0,0,0,.69-.08L86.31,99.7A2.19,2.19,0,0,0,88,98.39l6-18.89,2,.61,16.6,5.79,1.8.65-2.18,6.89a1.11,1.11,0,0,0,0,.72l11.24,35.6a2.18,2.18,0,0,0,1.65,1.29l24.87,5.65a3.19,3.19,0,0,0,.7.08,3.25,3.25,0,0,0,.69-.08l24.87-5.65a2.18,2.18,0,0,0,1.65-1.3l6-19,20.25,7.07-7.75,24.56a7.79,7.79,0,0,1-5.77,5L152.62,156A9.22,9.22,0,0,1,150.59,156.26Z"/><polyline class="cls-1" points="114.14 86.51 60.72 67.78 94.55 101.11"/></g></g></svg>